<mxfile host="app.diagrams.net" modified="2024-03-18T19:40:50.861Z" agent="Mozilla/5.0 (X11; Linux x86_64) AppleWebKit/537.36 (KHTML, like Gecko) Chrome/122.0.0.0 Safari/537.36" etag="CrqXwnfLcHun7OX8b8-Y" version="24.0.7" type="device">
  <diagram name="Page-1" id="yD7OdkKWVoem7eufRsLi">
    <mxGraphModel dx="2093" dy="1001" grid="1" gridSize="10" guides="1" tooltips="1" connect="1" arrows="1" fold="1" page="1" pageScale="1" pageWidth="1920" pageHeight="1200" math="0" shadow="0">
      <root>
        <mxCell id="0" />
        <mxCell id="1" parent="0" />
        <mxCell id="bbALmOzFAUpH4V1ZmCAf-1" value="&lt;font style=&quot;font-size: 20px;&quot;&gt;USER&lt;/font&gt;" style="rounded=0;whiteSpace=wrap;html=1;" parent="1" vertex="1">
          <mxGeometry x="990" y="190" width="120" height="60" as="geometry" />
        </mxCell>
        <mxCell id="bbALmOzFAUpH4V1ZmCAf-4" value="surname" style="ellipse;whiteSpace=wrap;html=1;rounded=0;" parent="1" vertex="1">
          <mxGeometry x="1340" y="180" width="80" height="80" as="geometry" />
        </mxCell>
        <mxCell id="bbALmOzFAUpH4V1ZmCAf-9" value="&lt;font size=&quot;1&quot;&gt;&lt;u&gt;username&lt;/u&gt;&lt;/font&gt;" style="ellipse;whiteSpace=wrap;html=1;rounded=0;" parent="1" vertex="1">
          <mxGeometry x="720" y="180" width="80" height="80" as="geometry" />
        </mxCell>
        <mxCell id="bbALmOzFAUpH4V1ZmCAf-11" value="password" style="ellipse;whiteSpace=wrap;html=1;rounded=0;" parent="1" vertex="1">
          <mxGeometry x="910" y="20" width="80" height="80" as="geometry" />
        </mxCell>
        <mxCell id="bbALmOzFAUpH4V1ZmCAf-15" value="name" style="ellipse;whiteSpace=wrap;html=1;rounded=0;" parent="1" vertex="1">
          <mxGeometry x="1150" y="20" width="80" height="80" as="geometry" />
        </mxCell>
        <mxCell id="bbALmOzFAUpH4V1ZmCAf-16" value="" style="endArrow=none;html=1;rounded=0;exitX=0.175;exitY=-0.052;exitDx=0;exitDy=0;exitPerimeter=0;entryX=0.5;entryY=1;entryDx=0;entryDy=0;" parent="1" source="bbALmOzFAUpH4V1ZmCAf-1" target="bbALmOzFAUpH4V1ZmCAf-11" edge="1">
          <mxGeometry width="50" height="50" relative="1" as="geometry">
            <mxPoint x="910" y="170" as="sourcePoint" />
            <mxPoint x="960" y="120" as="targetPoint" />
          </mxGeometry>
        </mxCell>
        <mxCell id="bbALmOzFAUpH4V1ZmCAf-17" value="" style="endArrow=none;html=1;rounded=0;exitX=1;exitY=0.5;exitDx=0;exitDy=0;entryX=0;entryY=0.5;entryDx=0;entryDy=0;" parent="1" source="bbALmOzFAUpH4V1ZmCAf-9" target="bbALmOzFAUpH4V1ZmCAf-1" edge="1">
          <mxGeometry width="50" height="50" relative="1" as="geometry">
            <mxPoint x="880" y="245" as="sourcePoint" />
            <mxPoint x="930" y="195" as="targetPoint" />
          </mxGeometry>
        </mxCell>
        <mxCell id="bbALmOzFAUpH4V1ZmCAf-18" value="" style="endArrow=none;html=1;rounded=0;exitX=0.75;exitY=0;exitDx=0;exitDy=0;" parent="1" source="bbALmOzFAUpH4V1ZmCAf-1" edge="1">
          <mxGeometry width="50" height="50" relative="1" as="geometry">
            <mxPoint x="1130" y="150" as="sourcePoint" />
            <mxPoint x="1180" y="100" as="targetPoint" />
          </mxGeometry>
        </mxCell>
        <mxCell id="bbALmOzFAUpH4V1ZmCAf-19" value="" style="endArrow=none;html=1;rounded=0;entryX=0;entryY=0.5;entryDx=0;entryDy=0;exitX=1;exitY=0.5;exitDx=0;exitDy=0;" parent="1" source="bbALmOzFAUpH4V1ZmCAf-1" target="bbALmOzFAUpH4V1ZmCAf-4" edge="1">
          <mxGeometry width="50" height="50" relative="1" as="geometry">
            <mxPoint x="1110" y="230" as="sourcePoint" />
            <mxPoint x="1160" y="180" as="targetPoint" />
          </mxGeometry>
        </mxCell>
        <mxCell id="bbALmOzFAUpH4V1ZmCAf-20" value="" style="endArrow=none;html=1;rounded=0;entryX=0.5;entryY=1;entryDx=0;entryDy=0;" parent="1" target="bbALmOzFAUpH4V1ZmCAf-1" edge="1">
          <mxGeometry width="50" height="50" relative="1" as="geometry">
            <mxPoint x="1050" y="330" as="sourcePoint" />
            <mxPoint x="1000" y="420" as="targetPoint" />
          </mxGeometry>
        </mxCell>
        <mxCell id="bbALmOzFAUpH4V1ZmCAf-22" value="ISA" style="triangle;whiteSpace=wrap;html=1;rotation=-90;" parent="1" vertex="1">
          <mxGeometry x="1020" y="320" width="60" height="80" as="geometry" />
        </mxCell>
        <mxCell id="bbALmOzFAUpH4V1ZmCAf-23" value="" style="endArrow=none;html=1;rounded=0;exitX=1;exitY=0.5;exitDx=0;exitDy=0;entryX=0;entryY=0;entryDx=0;entryDy=0;entryPerimeter=0;" parent="1" source="bbALmOzFAUpH4V1ZmCAf-25" target="bbALmOzFAUpH4V1ZmCAf-22" edge="1">
          <mxGeometry width="50" height="50" relative="1" as="geometry">
            <mxPoint x="360" y="480" as="sourcePoint" />
            <mxPoint x="920" y="360" as="targetPoint" />
          </mxGeometry>
        </mxCell>
        <mxCell id="bbALmOzFAUpH4V1ZmCAf-24" value="" style="endArrow=none;html=1;rounded=0;entryX=0;entryY=0.5;entryDx=0;entryDy=0;exitX=0.005;exitY=0.995;exitDx=0;exitDy=0;exitPerimeter=0;" parent="1" source="bbALmOzFAUpH4V1ZmCAf-22" target="bbALmOzFAUpH4V1ZmCAf-27" edge="1">
          <mxGeometry width="50" height="50" relative="1" as="geometry">
            <mxPoint x="1280" y="330" as="sourcePoint" />
            <mxPoint x="1740" y="470" as="targetPoint" />
          </mxGeometry>
        </mxCell>
        <mxCell id="bbALmOzFAUpH4V1ZmCAf-25" value="COACH" style="rounded=0;whiteSpace=wrap;html=1;" parent="1" vertex="1">
          <mxGeometry x="220" y="370" width="120" height="60" as="geometry" />
        </mxCell>
        <mxCell id="bbALmOzFAUpH4V1ZmCAf-27" value="JURY" style="rounded=0;whiteSpace=wrap;html=1;" parent="1" vertex="1">
          <mxGeometry x="1770" y="360" width="120" height="60" as="geometry" />
        </mxCell>
        <mxCell id="bbALmOzFAUpH4V1ZmCAf-28" value="PLAYER" style="rounded=0;whiteSpace=wrap;html=1;" parent="1" vertex="1">
          <mxGeometry x="990" y="480" width="120" height="70" as="geometry" />
        </mxCell>
        <mxCell id="bbALmOzFAUpH4V1ZmCAf-30" value="" style="endArrow=none;html=1;rounded=0;entryX=0;entryY=0.5;entryDx=0;entryDy=0;exitX=0.5;exitY=0;exitDx=0;exitDy=0;" parent="1" source="bbALmOzFAUpH4V1ZmCAf-28" target="bbALmOzFAUpH4V1ZmCAf-22" edge="1">
          <mxGeometry width="50" height="50" relative="1" as="geometry">
            <mxPoint x="880" y="470" as="sourcePoint" />
            <mxPoint x="930" y="420" as="targetPoint" />
          </mxGeometry>
        </mxCell>
        <mxCell id="bbALmOzFAUpH4V1ZmCAf-31" value="VOLLEYBALL_MATCH" style="rounded=0;whiteSpace=wrap;html=1;" parent="1" vertex="1">
          <mxGeometry x="990" y="1010" width="120" height="60" as="geometry" />
        </mxCell>
        <mxCell id="bbALmOzFAUpH4V1ZmCAf-32" value="STADIUM" style="rounded=0;whiteSpace=wrap;html=1;" parent="1" vertex="1">
          <mxGeometry x="1670" y="1010" width="120" height="60" as="geometry" />
        </mxCell>
        <mxCell id="bbALmOzFAUpH4V1ZmCAf-33" value="TEAM" style="rounded=0;whiteSpace=wrap;html=1;" parent="1" vertex="1">
          <mxGeometry x="590" y="1050" width="120" height="60" as="geometry" />
        </mxCell>
        <mxCell id="bbALmOzFAUpH4V1ZmCAf-34" value="CHANNEL" style="rounded=0;whiteSpace=wrap;html=1;" parent="1" vertex="1">
          <mxGeometry x="30" y="1050" width="120" height="60" as="geometry" />
        </mxCell>
        <mxCell id="bbALmOzFAUpH4V1ZmCAf-38" value="" style="endArrow=none;html=1;rounded=0;exitX=0.5;exitY=1;exitDx=0;exitDy=0;entryX=0.5;entryY=0;entryDx=0;entryDy=0;" parent="1" source="bbALmOzFAUpH4V1ZmCAf-39" edge="1" target="bbALmOzFAUpH4V1ZmCAf-27">
          <mxGeometry width="50" height="50" relative="1" as="geometry">
            <mxPoint x="1800" y="370" as="sourcePoint" />
            <mxPoint x="1800" y="330" as="targetPoint" />
          </mxGeometry>
        </mxCell>
        <mxCell id="bbALmOzFAUpH4V1ZmCAf-39" value="nationality" style="ellipse;whiteSpace=wrap;html=1;aspect=fixed;" parent="1" vertex="1">
          <mxGeometry x="1790" y="100" width="80" height="80" as="geometry" />
        </mxCell>
        <mxCell id="bbALmOzFAUpH4V1ZmCAf-40" value="Rates" style="rhombus;whiteSpace=wrap;html=1;" parent="1" vertex="1">
          <mxGeometry x="1800" y="540" width="80" height="80" as="geometry" />
        </mxCell>
        <mxCell id="bbALmOzFAUpH4V1ZmCAf-41" value="" style="endArrow=none;html=1;rounded=0;entryX=0.592;entryY=0.995;entryDx=0;entryDy=0;exitX=0.5;exitY=0;exitDx=0;exitDy=0;entryPerimeter=0;" parent="1" source="bbALmOzFAUpH4V1ZmCAf-40" target="bbALmOzFAUpH4V1ZmCAf-27" edge="1">
          <mxGeometry width="50" height="50" relative="1" as="geometry">
            <mxPoint x="880" y="810" as="sourcePoint" />
            <mxPoint x="930" y="760" as="targetPoint" />
          </mxGeometry>
        </mxCell>
        <mxCell id="bbALmOzFAUpH4V1ZmCAf-43" value="" style="endArrow=none;html=1;rounded=0;entryX=0.5;entryY=1;entryDx=0;entryDy=0;exitX=0.5;exitY=0;exitDx=0;exitDy=0;" parent="1" source="bbALmOzFAUpH4V1ZmCAf-44" target="bbALmOzFAUpH4V1ZmCAf-40" edge="1">
          <mxGeometry width="50" height="50" relative="1" as="geometry">
            <mxPoint x="1720" y="750" as="sourcePoint" />
            <mxPoint x="930" y="760" as="targetPoint" />
          </mxGeometry>
        </mxCell>
        <mxCell id="bbALmOzFAUpH4V1ZmCAf-44" value="rating" style="ellipse;whiteSpace=wrap;html=1;aspect=fixed;" parent="1" vertex="1">
          <mxGeometry x="1800" y="720" width="80" height="80" as="geometry" />
        </mxCell>
        <mxCell id="bbALmOzFAUpH4V1ZmCAf-45" value="" style="shape=flexArrow;endArrow=classic;html=1;rounded=0;exitX=1;exitY=0;exitDx=0;exitDy=0;entryX=0;entryY=1;entryDx=0;entryDy=0;" parent="1" source="bbALmOzFAUpH4V1ZmCAf-31" target="bbALmOzFAUpH4V1ZmCAf-40" edge="1">
          <mxGeometry width="50" height="50" relative="1" as="geometry">
            <mxPoint x="880" y="810" as="sourcePoint" />
            <mxPoint x="930" y="760" as="targetPoint" />
          </mxGeometry>
        </mxCell>
        <mxCell id="bbALmOzFAUpH4V1ZmCAf-46" value="DIRECTS" style="rhombus;whiteSpace=wrap;html=1;" parent="1" vertex="1">
          <mxGeometry x="225" y="585" width="110" height="80" as="geometry" />
        </mxCell>
        <mxCell id="bbALmOzFAUpH4V1ZmCAf-47" value="VOLLEYBALL_MATCH-STADIUM" style="rhombus;whiteSpace=wrap;html=1;" parent="1" vertex="1">
          <mxGeometry x="1370" y="1000" width="170" height="80" as="geometry" />
        </mxCell>
        <mxCell id="bbALmOzFAUpH4V1ZmCAf-48" value="" style="shape=flexArrow;endArrow=classic;html=1;rounded=0;exitX=1;exitY=0.5;exitDx=0;exitDy=0;entryX=0;entryY=0.5;entryDx=0;entryDy=0;" parent="1" source="bbALmOzFAUpH4V1ZmCAf-31" target="bbALmOzFAUpH4V1ZmCAf-47" edge="1">
          <mxGeometry width="50" height="50" relative="1" as="geometry">
            <mxPoint x="880" y="810" as="sourcePoint" />
            <mxPoint x="930" y="760" as="targetPoint" />
          </mxGeometry>
        </mxCell>
        <mxCell id="bbALmOzFAUpH4V1ZmCAf-49" value="" style="endArrow=none;html=1;rounded=0;exitX=1;exitY=0.5;exitDx=0;exitDy=0;entryX=0;entryY=0.5;entryDx=0;entryDy=0;" parent="1" source="bbALmOzFAUpH4V1ZmCAf-47" target="bbALmOzFAUpH4V1ZmCAf-32" edge="1">
          <mxGeometry width="50" height="50" relative="1" as="geometry">
            <mxPoint x="880" y="810" as="sourcePoint" />
            <mxPoint x="930" y="760" as="targetPoint" />
          </mxGeometry>
        </mxCell>
        <mxCell id="bbALmOzFAUpH4V1ZmCAf-52" value="date" style="ellipse;whiteSpace=wrap;html=1;aspect=fixed;" parent="1" vertex="1">
          <mxGeometry x="1415" y="870" width="80" height="80" as="geometry" />
        </mxCell>
        <mxCell id="bbALmOzFAUpH4V1ZmCAf-53" value="time slot" style="ellipse;whiteSpace=wrap;html=1;aspect=fixed;" parent="1" vertex="1">
          <mxGeometry x="1415" y="1120" width="80" height="80" as="geometry" />
        </mxCell>
        <mxCell id="bbALmOzFAUpH4V1ZmCAf-54" value="" style="endArrow=none;html=1;rounded=0;entryX=0.5;entryY=1;entryDx=0;entryDy=0;exitX=0.5;exitY=0;exitDx=0;exitDy=0;" parent="1" source="bbALmOzFAUpH4V1ZmCAf-47" target="bbALmOzFAUpH4V1ZmCAf-52" edge="1">
          <mxGeometry width="50" height="50" relative="1" as="geometry">
            <mxPoint x="880" y="810" as="sourcePoint" />
            <mxPoint x="930" y="760" as="targetPoint" />
          </mxGeometry>
        </mxCell>
        <mxCell id="bbALmOzFAUpH4V1ZmCAf-55" value="" style="endArrow=none;html=1;rounded=0;entryX=0.5;entryY=0;entryDx=0;entryDy=0;exitX=0.5;exitY=1;exitDx=0;exitDy=0;" parent="1" source="bbALmOzFAUpH4V1ZmCAf-47" target="bbALmOzFAUpH4V1ZmCAf-53" edge="1">
          <mxGeometry width="50" height="50" relative="1" as="geometry">
            <mxPoint x="1420" y="1010" as="sourcePoint" />
            <mxPoint x="1420" y="980" as="targetPoint" />
          </mxGeometry>
        </mxCell>
        <mxCell id="bbALmOzFAUpH4V1ZmCAf-56" value="" style="endArrow=none;html=1;rounded=0;entryX=0.5;entryY=0;entryDx=0;entryDy=0;" parent="1" target="bbALmOzFAUpH4V1ZmCAf-32" edge="1">
          <mxGeometry width="50" height="50" relative="1" as="geometry">
            <mxPoint x="1730" y="930" as="sourcePoint" />
            <mxPoint x="930" y="760" as="targetPoint" />
          </mxGeometry>
        </mxCell>
        <mxCell id="bbALmOzFAUpH4V1ZmCAf-57" value="&lt;u&gt;stadium_id&lt;/u&gt;" style="ellipse;whiteSpace=wrap;html=1;aspect=fixed;" parent="1" vertex="1">
          <mxGeometry x="1690" y="850" width="80" height="80" as="geometry" />
        </mxCell>
        <mxCell id="bbALmOzFAUpH4V1ZmCAf-58" value="stadium_name" style="ellipse;whiteSpace=wrap;html=1;aspect=fixed;" parent="1" vertex="1">
          <mxGeometry x="1780" y="880" width="80" height="80" as="geometry" />
        </mxCell>
        <mxCell id="bbALmOzFAUpH4V1ZmCAf-59" value="&lt;font style=&quot;font-size: 11px;&quot;&gt;stadium_country&lt;/font&gt;" style="ellipse;whiteSpace=wrap;html=1;aspect=fixed;" parent="1" vertex="1">
          <mxGeometry x="1840" y="1000" width="80" height="80" as="geometry" />
        </mxCell>
        <mxCell id="bbALmOzFAUpH4V1ZmCAf-61" value="" style="endArrow=none;html=1;rounded=0;exitX=0;exitY=0.5;exitDx=0;exitDy=0;entryX=1;entryY=0.5;entryDx=0;entryDy=0;" parent="1" source="bbALmOzFAUpH4V1ZmCAf-59" target="bbALmOzFAUpH4V1ZmCAf-32" edge="1">
          <mxGeometry width="50" height="50" relative="1" as="geometry">
            <mxPoint x="1740" y="940" as="sourcePoint" />
            <mxPoint x="1740" y="1010" as="targetPoint" />
          </mxGeometry>
        </mxCell>
        <mxCell id="bbALmOzFAUpH4V1ZmCAf-62" value="" style="endArrow=none;html=1;rounded=0;exitX=0.5;exitY=1;exitDx=0;exitDy=0;" parent="1" source="bbALmOzFAUpH4V1ZmCAf-58" edge="1">
          <mxGeometry width="50" height="50" relative="1" as="geometry">
            <mxPoint x="1801" y="963" as="sourcePoint" />
            <mxPoint x="1770" y="1010" as="targetPoint" />
          </mxGeometry>
        </mxCell>
        <mxCell id="bbALmOzFAUpH4V1ZmCAf-63" value="&lt;u&gt;session_id&lt;/u&gt;" style="ellipse;whiteSpace=wrap;html=1;aspect=fixed;" parent="1" vertex="1">
          <mxGeometry x="1010" y="1120" width="80" height="80" as="geometry" />
        </mxCell>
        <mxCell id="bbALmOzFAUpH4V1ZmCAf-64" value="" style="endArrow=none;html=1;rounded=0;exitX=0.5;exitY=1;exitDx=0;exitDy=0;entryX=0.5;entryY=0;entryDx=0;entryDy=0;" parent="1" source="bbALmOzFAUpH4V1ZmCAf-31" target="bbALmOzFAUpH4V1ZmCAf-63" edge="1">
          <mxGeometry width="50" height="50" relative="1" as="geometry">
            <mxPoint x="880" y="810" as="sourcePoint" />
            <mxPoint x="930" y="760" as="targetPoint" />
          </mxGeometry>
        </mxCell>
        <mxCell id="bbALmOzFAUpH4V1ZmCAf-65" value="&lt;u&gt;channel_id&lt;/u&gt;" style="ellipse;whiteSpace=wrap;html=1;aspect=fixed;" parent="1" vertex="1">
          <mxGeometry x="10" y="890" width="80" height="80" as="geometry" />
        </mxCell>
        <mxCell id="bbALmOzFAUpH4V1ZmCAf-66" value="channel_name" style="ellipse;whiteSpace=wrap;html=1;aspect=fixed;" parent="1" vertex="1">
          <mxGeometry x="190" y="890" width="80" height="80" as="geometry" />
        </mxCell>
        <mxCell id="bbALmOzFAUpH4V1ZmCAf-67" value="" style="endArrow=none;html=1;rounded=0;exitX=0.25;exitY=0;exitDx=0;exitDy=0;entryX=0.5;entryY=1;entryDx=0;entryDy=0;" parent="1" source="bbALmOzFAUpH4V1ZmCAf-34" target="bbALmOzFAUpH4V1ZmCAf-65" edge="1">
          <mxGeometry width="50" height="50" relative="1" as="geometry">
            <mxPoint x="880" y="810" as="sourcePoint" />
            <mxPoint x="70" y="840" as="targetPoint" />
          </mxGeometry>
        </mxCell>
        <mxCell id="bbALmOzFAUpH4V1ZmCAf-68" value="" style="endArrow=none;html=1;rounded=0;exitX=0.5;exitY=1;exitDx=0;exitDy=0;entryX=0.75;entryY=0;entryDx=0;entryDy=0;" parent="1" source="bbALmOzFAUpH4V1ZmCAf-66" target="bbALmOzFAUpH4V1ZmCAf-34" edge="1">
          <mxGeometry width="50" height="50" relative="1" as="geometry">
            <mxPoint x="880" y="810" as="sourcePoint" />
            <mxPoint x="930" y="760" as="targetPoint" />
          </mxGeometry>
        </mxCell>
        <mxCell id="bbALmOzFAUpH4V1ZmCAf-69" value="AGREES" style="rhombus;whiteSpace=wrap;html=1;" parent="1" vertex="1">
          <mxGeometry x="370" y="1040" width="80" height="80" as="geometry" />
        </mxCell>
        <mxCell id="bbALmOzFAUpH4V1ZmCAf-70" value="" style="shape=flexArrow;endArrow=classic;html=1;rounded=0;entryX=1;entryY=0.5;entryDx=0;entryDy=0;exitX=0;exitY=0.5;exitDx=0;exitDy=0;" parent="1" target="bbALmOzFAUpH4V1ZmCAf-69" edge="1" source="bbALmOzFAUpH4V1ZmCAf-33">
          <mxGeometry width="50" height="50" relative="1" as="geometry">
            <mxPoint x="570" y="880" as="sourcePoint" />
            <mxPoint x="930" y="760" as="targetPoint" />
          </mxGeometry>
        </mxCell>
        <mxCell id="bbALmOzFAUpH4V1ZmCAf-71" value="" style="endArrow=none;html=1;rounded=0;exitX=0;exitY=0.5;exitDx=0;exitDy=0;entryX=1;entryY=0.5;entryDx=0;entryDy=0;" parent="1" source="bbALmOzFAUpH4V1ZmCAf-69" edge="1" target="bbALmOzFAUpH4V1ZmCAf-34">
          <mxGeometry width="50" height="50" relative="1" as="geometry">
            <mxPoint x="880" y="810" as="sourcePoint" />
            <mxPoint x="150" y="880" as="targetPoint" />
          </mxGeometry>
        </mxCell>
        <mxCell id="bbALmOzFAUpH4V1ZmCAf-72" value="" style="shape=flexArrow;endArrow=classic;html=1;rounded=0;entryX=1;entryY=1;entryDx=0;entryDy=0;exitX=0;exitY=0;exitDx=0;exitDy=0;" parent="1" source="bbALmOzFAUpH4V1ZmCAf-33" target="bbALmOzFAUpH4V1ZmCAf-46" edge="1">
          <mxGeometry width="50" height="50" relative="1" as="geometry">
            <mxPoint x="680" y="819.9999999999998" as="sourcePoint" />
            <mxPoint x="510" y="649.9999999999998" as="targetPoint" />
          </mxGeometry>
        </mxCell>
        <mxCell id="bbALmOzFAUpH4V1ZmCAf-73" value="" style="endArrow=none;html=1;rounded=0;entryX=0.5;entryY=0;entryDx=0;entryDy=0;exitX=0.5;exitY=1;exitDx=0;exitDy=0;" parent="1" source="bbALmOzFAUpH4V1ZmCAf-25" target="bbALmOzFAUpH4V1ZmCAf-46" edge="1">
          <mxGeometry width="50" height="50" relative="1" as="geometry">
            <mxPoint x="350" y="530" as="sourcePoint" />
            <mxPoint x="930" y="760" as="targetPoint" />
          </mxGeometry>
        </mxCell>
        <mxCell id="bbALmOzFAUpH4V1ZmCAf-74" value="nationality" style="ellipse;whiteSpace=wrap;html=1;aspect=fixed;" parent="1" vertex="1">
          <mxGeometry x="240" y="70" width="80" height="80" as="geometry" />
        </mxCell>
        <mxCell id="bbALmOzFAUpH4V1ZmCAf-75" value="" style="endArrow=none;html=1;rounded=0;entryX=0.5;entryY=0;entryDx=0;entryDy=0;exitX=0.5;exitY=1;exitDx=0;exitDy=0;" parent="1" target="bbALmOzFAUpH4V1ZmCAf-25" edge="1" source="bbALmOzFAUpH4V1ZmCAf-74">
          <mxGeometry width="50" height="50" relative="1" as="geometry">
            <mxPoint x="90" y="340" as="sourcePoint" />
            <mxPoint x="230" y="339.28999999999996" as="targetPoint" />
          </mxGeometry>
        </mxCell>
        <mxCell id="bbALmOzFAUpH4V1ZmCAf-81" value="birth_date" style="ellipse;whiteSpace=wrap;html=1;aspect=fixed;" parent="1" vertex="1">
          <mxGeometry x="760" y="400" width="80" height="80" as="geometry" />
        </mxCell>
        <mxCell id="bbALmOzFAUpH4V1ZmCAf-82" value="height" style="ellipse;whiteSpace=wrap;html=1;aspect=fixed;" parent="1" vertex="1">
          <mxGeometry x="1240" y="400" width="80" height="80" as="geometry" />
        </mxCell>
        <mxCell id="bbALmOzFAUpH4V1ZmCAf-83" value="weight" style="ellipse;whiteSpace=wrap;html=1;aspect=fixed;" parent="1" vertex="1">
          <mxGeometry x="1415" y="440" width="80" height="80" as="geometry" />
        </mxCell>
        <mxCell id="bbALmOzFAUpH4V1ZmCAf-84" value="" style="endArrow=none;html=1;rounded=0;entryX=0;entryY=0;entryDx=0;entryDy=0;exitX=1;exitY=0.5;exitDx=0;exitDy=0;" parent="1" source="bbALmOzFAUpH4V1ZmCAf-81" target="bbALmOzFAUpH4V1ZmCAf-28" edge="1">
          <mxGeometry width="50" height="50" relative="1" as="geometry">
            <mxPoint x="880" y="460" as="sourcePoint" />
            <mxPoint x="930" y="410" as="targetPoint" />
          </mxGeometry>
        </mxCell>
        <mxCell id="bbALmOzFAUpH4V1ZmCAf-85" value="" style="endArrow=none;html=1;rounded=0;entryX=0;entryY=0.5;entryDx=0;entryDy=0;exitX=1;exitY=0;exitDx=0;exitDy=0;" parent="1" source="bbALmOzFAUpH4V1ZmCAf-28" target="bbALmOzFAUpH4V1ZmCAf-82" edge="1">
          <mxGeometry width="50" height="50" relative="1" as="geometry">
            <mxPoint x="880" y="460" as="sourcePoint" />
            <mxPoint x="930" y="410" as="targetPoint" />
          </mxGeometry>
        </mxCell>
        <mxCell id="bbALmOzFAUpH4V1ZmCAf-86" value="" style="endArrow=none;html=1;rounded=0;entryX=0;entryY=0.5;entryDx=0;entryDy=0;exitX=1;exitY=0.5;exitDx=0;exitDy=0;" parent="1" source="bbALmOzFAUpH4V1ZmCAf-28" target="bbALmOzFAUpH4V1ZmCAf-83" edge="1">
          <mxGeometry width="50" height="50" relative="1" as="geometry">
            <mxPoint x="1150" y="550" as="sourcePoint" />
            <mxPoint x="1180" y="480" as="targetPoint" />
          </mxGeometry>
        </mxCell>
        <mxCell id="bbALmOzFAUpH4V1ZmCAf-89" value="IN MATCH" style="rhombus;whiteSpace=wrap;html=1;" parent="1" vertex="1">
          <mxGeometry x="1000" y="900" width="80" height="80" as="geometry" />
        </mxCell>
        <mxCell id="bbALmOzFAUpH4V1ZmCAf-93" value="POSITION_TYPE" style="rounded=0;whiteSpace=wrap;html=1;" parent="1" vertex="1">
          <mxGeometry x="1390" y="640" width="120" height="60" as="geometry" />
        </mxCell>
        <mxCell id="bbALmOzFAUpH4V1ZmCAf-94" value="" style="endArrow=none;html=1;rounded=0;entryX=0.75;entryY=0;entryDx=0;entryDy=0;exitX=0;exitY=1;exitDx=0;exitDy=0;" parent="1" source="bbALmOzFAUpH4V1ZmCAf-98" target="bbALmOzFAUpH4V1ZmCAf-93" edge="1">
          <mxGeometry width="50" height="50" relative="1" as="geometry">
            <mxPoint x="1560" y="560" as="sourcePoint" />
            <mxPoint x="930" y="590" as="targetPoint" />
          </mxGeometry>
        </mxCell>
        <mxCell id="bbALmOzFAUpH4V1ZmCAf-95" value="" style="endArrow=none;html=1;rounded=0;entryX=1;entryY=0.5;entryDx=0;entryDy=0;exitX=1;exitY=1;exitDx=0;exitDy=0;" parent="1" source="bbALmOzFAUpH4V1ZmCAf-96" target="bbALmOzFAUpH4V1ZmCAf-93" edge="1">
          <mxGeometry width="50" height="50" relative="1" as="geometry">
            <mxPoint x="1640" y="570" as="sourcePoint" />
            <mxPoint x="1560" y="690" as="targetPoint" />
          </mxGeometry>
        </mxCell>
        <mxCell id="bbALmOzFAUpH4V1ZmCAf-96" value="postion_name" style="ellipse;whiteSpace=wrap;html=1;aspect=fixed;direction=south;" parent="1" vertex="1">
          <mxGeometry x="1590" y="560" width="90" height="90" as="geometry" />
        </mxCell>
        <mxCell id="bbALmOzFAUpH4V1ZmCAf-98" value="&lt;u&gt;position_id&lt;/u&gt;" style="ellipse;whiteSpace=wrap;html=1;aspect=fixed;" parent="1" vertex="1">
          <mxGeometry x="1500" y="530" width="80" height="80" as="geometry" />
        </mxCell>
        <mxCell id="bbALmOzFAUpH4V1ZmCAf-100" value="PLAYER_POSITION" style="rounded=0;whiteSpace=wrap;html=1;" parent="1" vertex="1">
          <mxGeometry x="1190" y="620" width="120" height="60" as="geometry" />
        </mxCell>
        <mxCell id="bbALmOzFAUpH4V1ZmCAf-101" value="" style="shape=flexArrow;endArrow=classic;html=1;rounded=0;entryX=0;entryY=1;entryDx=0;entryDy=0;exitX=1;exitY=0;exitDx=0;exitDy=0;" parent="1" source="bbALmOzFAUpH4V1ZmCAf-100" edge="1">
          <mxGeometry width="50" height="50" relative="1" as="geometry">
            <mxPoint x="1330" y="560" as="sourcePoint" />
            <mxPoint x="1350" y="599.9999999999998" as="targetPoint" />
          </mxGeometry>
        </mxCell>
        <mxCell id="bbALmOzFAUpH4V1ZmCAf-102" value="" style="endArrow=none;html=1;rounded=0;entryX=1;entryY=1;entryDx=0;entryDy=0;exitX=0.417;exitY=0;exitDx=0;exitDy=0;exitPerimeter=0;" parent="1" source="bbALmOzFAUpH4V1ZmCAf-93" edge="1">
          <mxGeometry width="50" height="50" relative="1" as="geometry">
            <mxPoint x="880" y="810" as="sourcePoint" />
            <mxPoint x="1390" y="599.9999999999998" as="targetPoint" />
          </mxGeometry>
        </mxCell>
        <mxCell id="bbALmOzFAUpH4V1ZmCAf-103" value="username" style="ellipse;whiteSpace=wrap;html=1;aspect=fixed;" parent="1" vertex="1">
          <mxGeometry x="1270" y="700" width="80" height="80" as="geometry" />
        </mxCell>
        <mxCell id="bbALmOzFAUpH4V1ZmCAf-104" value="position_id" style="ellipse;whiteSpace=wrap;html=1;aspect=fixed;" parent="1" vertex="1">
          <mxGeometry x="1170" y="700" width="80" height="80" as="geometry" />
        </mxCell>
        <mxCell id="bbALmOzFAUpH4V1ZmCAf-105" value="" style="endArrow=none;html=1;rounded=0;exitX=0.5;exitY=0;exitDx=0;exitDy=0;" parent="1" source="bbALmOzFAUpH4V1ZmCAf-104" edge="1">
          <mxGeometry width="50" height="50" relative="1" as="geometry">
            <mxPoint x="880" y="810" as="sourcePoint" />
            <mxPoint x="1238" y="681" as="targetPoint" />
          </mxGeometry>
        </mxCell>
        <mxCell id="bbALmOzFAUpH4V1ZmCAf-106" value="" style="endArrow=none;html=1;rounded=0;entryX=0.75;entryY=1;entryDx=0;entryDy=0;exitX=0.5;exitY=0;exitDx=0;exitDy=0;" parent="1" source="bbALmOzFAUpH4V1ZmCAf-103" target="bbALmOzFAUpH4V1ZmCAf-100" edge="1">
          <mxGeometry width="50" height="50" relative="1" as="geometry">
            <mxPoint x="880" y="810" as="sourcePoint" />
            <mxPoint x="930" y="760" as="targetPoint" />
          </mxGeometry>
        </mxCell>
        <mxCell id="bbALmOzFAUpH4V1ZmCAf-112" value="" style="endArrow=none;html=1;rounded=0;entryX=0;entryY=0.5;entryDx=0;entryDy=0;exitX=1;exitY=0.5;exitDx=0;exitDy=0;" parent="1" source="huFveuyKXu38vRTOwALV-14" target="bbALmOzFAUpH4V1ZmCAf-100" edge="1">
          <mxGeometry width="50" height="50" relative="1" as="geometry">
            <mxPoint x="1160" y="640" as="sourcePoint" />
            <mxPoint x="930" y="760" as="targetPoint" />
          </mxGeometry>
        </mxCell>
        <mxCell id="bbALmOzFAUpH4V1ZmCAf-119" value="IN SESSION" style="rhombus;whiteSpace=wrap;html=1;" parent="1" vertex="1">
          <mxGeometry x="910" y="620" width="80" height="80" as="geometry" />
        </mxCell>
        <mxCell id="bbALmOzFAUpH4V1ZmCAf-120" value="PLAYER LIST" style="rounded=0;whiteSpace=wrap;html=1;" parent="1" vertex="1">
          <mxGeometry x="980" y="790" width="120" height="60" as="geometry" />
        </mxCell>
        <mxCell id="bbALmOzFAUpH4V1ZmCAf-127" value="" style="endArrow=none;html=1;rounded=0;entryX=0.5;entryY=0;entryDx=0;entryDy=0;" parent="1" target="bbALmOzFAUpH4V1ZmCAf-119" edge="1">
          <mxGeometry width="50" height="50" relative="1" as="geometry">
            <mxPoint x="1040" y="550" as="sourcePoint" />
            <mxPoint x="930" y="760" as="targetPoint" />
          </mxGeometry>
        </mxCell>
        <mxCell id="bbALmOzFAUpH4V1ZmCAf-128" value="" style="shape=flexArrow;endArrow=classic;html=1;rounded=0;entryX=0.5;entryY=1;entryDx=0;entryDy=0;exitX=0.5;exitY=0;exitDx=0;exitDy=0;" parent="1" source="bbALmOzFAUpH4V1ZmCAf-120" target="bbALmOzFAUpH4V1ZmCAf-119" edge="1">
          <mxGeometry width="50" height="50" relative="1" as="geometry">
            <mxPoint x="880" y="810" as="sourcePoint" />
            <mxPoint x="930" y="760" as="targetPoint" />
          </mxGeometry>
        </mxCell>
        <mxCell id="bbALmOzFAUpH4V1ZmCAf-129" value="" style="shape=flexArrow;endArrow=classic;html=1;rounded=0;exitX=0.5;exitY=1;exitDx=0;exitDy=0;entryX=0.5;entryY=0;entryDx=0;entryDy=0;" parent="1" source="bbALmOzFAUpH4V1ZmCAf-120" target="bbALmOzFAUpH4V1ZmCAf-89" edge="1">
          <mxGeometry width="50" height="50" relative="1" as="geometry">
            <mxPoint x="880" y="810" as="sourcePoint" />
            <mxPoint x="930" y="760" as="targetPoint" />
          </mxGeometry>
        </mxCell>
        <mxCell id="bbALmOzFAUpH4V1ZmCAf-133" value="session_id" style="ellipse;whiteSpace=wrap;html=1;aspect=fixed;" parent="1" vertex="1">
          <mxGeometry x="850" y="800" width="80" height="80" as="geometry" />
        </mxCell>
        <mxCell id="bbALmOzFAUpH4V1ZmCAf-134" value="" style="endArrow=none;html=1;rounded=0;entryX=0;entryY=0.5;entryDx=0;entryDy=0;exitX=1;exitY=0.5;exitDx=0;exitDy=0;" parent="1" source="bbALmOzFAUpH4V1ZmCAf-133" target="bbALmOzFAUpH4V1ZmCAf-120" edge="1">
          <mxGeometry width="50" height="50" relative="1" as="geometry">
            <mxPoint x="890" y="810" as="sourcePoint" />
            <mxPoint x="930" y="760" as="targetPoint" />
          </mxGeometry>
        </mxCell>
        <mxCell id="bbALmOzFAUpH4V1ZmCAf-135" value="username" style="ellipse;whiteSpace=wrap;html=1;aspect=fixed;" parent="1" vertex="1">
          <mxGeometry x="1140" y="820" width="80" height="80" as="geometry" />
        </mxCell>
        <mxCell id="bbALmOzFAUpH4V1ZmCAf-136" value="" style="endArrow=none;html=1;rounded=0;entryX=1;entryY=0.5;entryDx=0;entryDy=0;exitX=0;exitY=0;exitDx=0;exitDy=0;" parent="1" source="bbALmOzFAUpH4V1ZmCAf-135" target="bbALmOzFAUpH4V1ZmCAf-120" edge="1">
          <mxGeometry width="50" height="50" relative="1" as="geometry">
            <mxPoint x="880" y="810" as="sourcePoint" />
            <mxPoint x="930" y="760" as="targetPoint" />
          </mxGeometry>
        </mxCell>
        <mxCell id="bbALmOzFAUpH4V1ZmCAf-137" value="position_id" style="ellipse;whiteSpace=wrap;html=1;aspect=fixed;direction=south;" parent="1" vertex="1">
          <mxGeometry x="760" y="620" width="80" height="80" as="geometry" />
        </mxCell>
        <mxCell id="bbALmOzFAUpH4V1ZmCAf-139" value="" style="endArrow=none;html=1;rounded=0;exitX=0;exitY=0.5;exitDx=0;exitDy=0;entryX=0.5;entryY=0;entryDx=0;entryDy=0;" parent="1" source="bbALmOzFAUpH4V1ZmCAf-119" edge="1" target="bbALmOzFAUpH4V1ZmCAf-137">
          <mxGeometry width="50" height="50" relative="1" as="geometry">
            <mxPoint x="880" y="810" as="sourcePoint" />
            <mxPoint x="962" y="670" as="targetPoint" />
          </mxGeometry>
        </mxCell>
        <mxCell id="bbALmOzFAUpH4V1ZmCAf-142" value="" style="endArrow=none;html=1;rounded=0;entryX=0.5;entryY=1;entryDx=0;entryDy=0;exitX=0.425;exitY=0.019;exitDx=0;exitDy=0;exitPerimeter=0;" parent="1" source="bbALmOzFAUpH4V1ZmCAf-31" target="bbALmOzFAUpH4V1ZmCAf-89" edge="1">
          <mxGeometry width="50" height="50" relative="1" as="geometry">
            <mxPoint x="880" y="810" as="sourcePoint" />
            <mxPoint x="930" y="760" as="targetPoint" />
          </mxGeometry>
        </mxCell>
        <mxCell id="bbALmOzFAUpH4V1ZmCAf-143" value="" style="endArrow=none;html=1;rounded=0;exitX=0.62;exitY=0.907;exitDx=0;exitDy=0;exitPerimeter=0;" parent="1" source="bbALmOzFAUpH4V1ZmCAf-89" target="bbALmOzFAUpH4V1ZmCAf-31" edge="1">
          <mxGeometry width="50" height="50" relative="1" as="geometry">
            <mxPoint x="1050" y="970" as="sourcePoint" />
            <mxPoint x="930" y="760" as="targetPoint" />
          </mxGeometry>
        </mxCell>
        <mxCell id="bbALmOzFAUpH4V1ZmCAf-145" value="&lt;u&gt;team_id&lt;/u&gt;" style="ellipse;whiteSpace=wrap;html=1;aspect=fixed;" parent="1" vertex="1">
          <mxGeometry x="850" y="1090" width="80" height="80" as="geometry" />
        </mxCell>
        <mxCell id="bbALmOzFAUpH4V1ZmCAf-146" value="team_name" style="ellipse;whiteSpace=wrap;html=1;aspect=fixed;" parent="1" vertex="1">
          <mxGeometry x="780" y="900" width="80" height="80" as="geometry" />
        </mxCell>
        <mxCell id="bbALmOzFAUpH4V1ZmCAf-147" value="" style="endArrow=none;html=1;rounded=0;entryX=1;entryY=0.5;entryDx=0;entryDy=0;exitX=0;exitY=0.5;exitDx=0;exitDy=0;" parent="1" source="bbALmOzFAUpH4V1ZmCAf-145" target="bbALmOzFAUpH4V1ZmCAf-33" edge="1">
          <mxGeometry width="50" height="50" relative="1" as="geometry">
            <mxPoint x="880" y="810" as="sourcePoint" />
            <mxPoint x="930" y="760" as="targetPoint" />
          </mxGeometry>
        </mxCell>
        <mxCell id="bbALmOzFAUpH4V1ZmCAf-148" value="" style="endArrow=none;html=1;rounded=0;entryX=0.75;entryY=0;entryDx=0;entryDy=0;exitX=0;exitY=1;exitDx=0;exitDy=0;" parent="1" source="bbALmOzFAUpH4V1ZmCAf-146" target="bbALmOzFAUpH4V1ZmCAf-33" edge="1">
          <mxGeometry width="50" height="50" relative="1" as="geometry">
            <mxPoint x="880" y="810" as="sourcePoint" />
            <mxPoint x="930" y="760" as="targetPoint" />
          </mxGeometry>
        </mxCell>
        <mxCell id="bbALmOzFAUpH4V1ZmCAf-150" value="contract_start_date" style="ellipse;whiteSpace=wrap;html=1;aspect=fixed;" parent="1" vertex="1">
          <mxGeometry x="50" y="510" width="100" height="100" as="geometry" />
        </mxCell>
        <mxCell id="bbALmOzFAUpH4V1ZmCAf-151" value="contract_end_date" style="ellipse;whiteSpace=wrap;html=1;aspect=fixed;" parent="1" vertex="1">
          <mxGeometry x="90" y="720" width="100" height="100" as="geometry" />
        </mxCell>
        <mxCell id="bbALmOzFAUpH4V1ZmCAf-155" value="" style="endArrow=none;html=1;rounded=0;exitX=0.25;exitY=0;exitDx=0;exitDy=0;entryX=0.5;entryY=1;entryDx=0;entryDy=0;" parent="1" source="bbALmOzFAUpH4V1ZmCAf-33" target="huFveuyKXu38vRTOwALV-4" edge="1">
          <mxGeometry width="50" height="50" relative="1" as="geometry">
            <mxPoint x="880" y="810" as="sourcePoint" />
            <mxPoint x="660" y="890" as="targetPoint" />
          </mxGeometry>
        </mxCell>
        <mxCell id="bbALmOzFAUpH4V1ZmCAf-156" value="" style="endArrow=none;html=1;rounded=0;entryX=1.024;entryY=0.597;entryDx=0;entryDy=0;entryPerimeter=0;exitX=0;exitY=0.5;exitDx=0;exitDy=0;" parent="1" source="bbALmOzFAUpH4V1ZmCAf-46" target="bbALmOzFAUpH4V1ZmCAf-150" edge="1">
          <mxGeometry width="50" height="50" relative="1" as="geometry">
            <mxPoint x="880" y="810" as="sourcePoint" />
            <mxPoint x="930" y="760" as="targetPoint" />
          </mxGeometry>
        </mxCell>
        <mxCell id="bbALmOzFAUpH4V1ZmCAf-157" value="" style="endArrow=none;html=1;rounded=0;entryX=0.996;entryY=0.597;entryDx=0;entryDy=0;entryPerimeter=0;" parent="1" source="bbALmOzFAUpH4V1ZmCAf-46" target="bbALmOzFAUpH4V1ZmCAf-151" edge="1">
          <mxGeometry width="50" height="50" relative="1" as="geometry">
            <mxPoint x="311" y="655" as="sourcePoint" />
            <mxPoint x="930" y="760" as="targetPoint" />
          </mxGeometry>
        </mxCell>
        <mxCell id="huFveuyKXu38vRTOwALV-1" value="TEAM LIST" style="shape=ext;margin=3;double=1;whiteSpace=wrap;html=1;align=center;" vertex="1" parent="1">
          <mxGeometry x="550" y="535" width="100" height="50" as="geometry" />
        </mxCell>
        <mxCell id="huFveuyKXu38vRTOwALV-2" value="" style="endArrow=none;html=1;rounded=0;exitX=1;exitY=0.5;exitDx=0;exitDy=0;entryX=0;entryY=0.5;entryDx=0;entryDy=0;" edge="1" parent="1" source="huFveuyKXu38vRTOwALV-1">
          <mxGeometry relative="1" as="geometry">
            <mxPoint x="960" y="580" as="sourcePoint" />
            <mxPoint x="760" y="559.9999999999998" as="targetPoint" />
          </mxGeometry>
        </mxCell>
        <mxCell id="huFveuyKXu38vRTOwALV-3" value="" style="shape=flexArrow;endArrow=classic;html=1;rounded=0;exitX=0.5;exitY=1;exitDx=0;exitDy=0;entryX=0.5;entryY=0;entryDx=0;entryDy=0;" edge="1" parent="1" source="huFveuyKXu38vRTOwALV-1" target="huFveuyKXu38vRTOwALV-4">
          <mxGeometry width="50" height="50" relative="1" as="geometry">
            <mxPoint x="1020" y="600" as="sourcePoint" />
            <mxPoint x="600" y="619.9999999999998" as="targetPoint" />
          </mxGeometry>
        </mxCell>
        <mxCell id="huFveuyKXu38vRTOwALV-4" value="ELEMENT" style="shape=rhombus;double=1;perimeter=rhombusPerimeter;whiteSpace=wrap;html=1;align=center;" vertex="1" parent="1">
          <mxGeometry x="660" y="780" width="120" height="80" as="geometry" />
        </mxCell>
        <mxCell id="huFveuyKXu38vRTOwALV-5" value="ELEMENT" style="shape=rhombus;double=1;perimeter=rhombusPerimeter;whiteSpace=wrap;html=1;align=center;" vertex="1" parent="1">
          <mxGeometry x="1310" y="530" width="120" height="80" as="geometry" />
        </mxCell>
        <mxCell id="huFveuyKXu38vRTOwALV-9" value="ENROLLED" style="shape=rhombus;double=1;perimeter=rhombusPerimeter;whiteSpace=wrap;html=1;align=center;" vertex="1" parent="1">
          <mxGeometry x="760" y="520" width="120" height="80" as="geometry" />
        </mxCell>
        <mxCell id="huFveuyKXu38vRTOwALV-12" value="" style="shape=link;html=1;rounded=0;exitX=1;exitY=0;exitDx=0;exitDy=0;entryX=0;entryY=0.5;entryDx=0;entryDy=0;" edge="1" parent="1" source="huFveuyKXu38vRTOwALV-9" target="bbALmOzFAUpH4V1ZmCAf-28">
          <mxGeometry width="100" relative="1" as="geometry">
            <mxPoint x="990" y="580" as="sourcePoint" />
            <mxPoint x="1090" y="580" as="targetPoint" />
          </mxGeometry>
        </mxCell>
        <mxCell id="huFveuyKXu38vRTOwALV-13" value="" style="shape=link;html=1;rounded=0;entryX=0.75;entryY=1;entryDx=0;entryDy=0;exitX=0.5;exitY=0;exitDx=0;exitDy=0;" edge="1" parent="1" source="huFveuyKXu38vRTOwALV-14" target="bbALmOzFAUpH4V1ZmCAf-28">
          <mxGeometry width="100" relative="1" as="geometry">
            <mxPoint x="1137.7777777777778" y="572.222222222222" as="sourcePoint" />
            <mxPoint x="1090" y="560" as="targetPoint" />
          </mxGeometry>
        </mxCell>
        <mxCell id="huFveuyKXu38vRTOwALV-14" value="CAN PLAY" style="shape=rhombus;double=1;perimeter=rhombusPerimeter;whiteSpace=wrap;html=1;align=center;" vertex="1" parent="1">
          <mxGeometry x="1020" y="640" width="120" height="80" as="geometry" />
        </mxCell>
      </root>
    </mxGraphModel>
  </diagram>
</mxfile>
